<svg width="120" height="120" viewBox="0 0 120 120" fill="none" xmlns="http://www.w3.org/2000/svg">
<circle cx="60" cy="60" r="60" fill="white"/>
<circle cx="60" cy="60" r="59.4891" stroke="#CBCBCB" stroke-opacity="0.15" stroke-width="1.02174"/>
<g clip-path="url(#clip0_5_116)">
<path d="M65 51.5928H54C52.346 51.5928 51 52.9544 51 54.6276V55.6393H50C49.447 55.6393 49 56.0925 49 56.6509C49 57.2093 49.447 57.6625 50 57.6625H51V59.6858H50C49.447 59.6858 49 60.139 49 60.6974C49 61.2558 49.447 61.709 50 61.709H51V63.7323H50C49.447 63.7323 49 64.1855 49 64.7439C49 65.3023 49.447 65.7555 50 65.7555H51V66.7671C51 68.4403 52.346 69.802 54 69.802H65C66.654 69.802 68 68.4403 68 66.7671V54.6276C68 52.9544 66.654 51.5928 65 51.5928ZM53 54.6276C53 54.0702 53.449 53.616 54 53.616V55.6393H53V54.6276ZM53 57.6625H54V59.6858H53V57.6625ZM53 61.709H54V63.7323H53V61.709ZM53 66.7671V65.7555H54V67.7787C53.449 67.7787 53 67.3245 53 66.7671ZM66 66.7671C66 67.3245 65.551 67.7787 65 67.7787H55V53.616H65C65.551 53.616 66 54.0702 66 54.6276V66.7671Z" fill="#333333"/>
<path d="M62 59.1799C62 60.2977 61.105 61.2031 60 61.2031C58.895 61.2031 58 60.2977 58 59.1799C58 58.062 58.895 57.1566 60 57.1566C61.105 57.1566 62 58.062 62 59.1799Z" fill="#333333"/>
<path d="M60 62.0691C58.438 62.0691 57.5 62.7924 57.5 63.5147C57.5 63.8759 58.438 64.238 60 64.238C61.466 64.238 62.5 63.8769 62.5 63.5147C62.5 62.7924 61.52 62.0691 60 62.0691Z" fill="#333333"/>
</g>
<path d="M48.3374 103.121C48.0894 103.121 47.9029 103.052 47.7778 102.916C47.6528 102.78 47.5894 102.587 47.5875 102.339L47.5298 94.5826C47.5279 94.3345 47.5886 94.1485 47.7117 94.0245C47.8346 93.8881 48.014 93.8199 48.2496 93.8199C48.4852 93.8199 48.6655 93.8881 48.7906 94.0245C48.9279 94.1485 48.9975 94.3345 48.9993 94.5826L49.0115 96.2195L48.805 95.959C49.0354 95.2646 49.4097 94.7314 49.9278 94.3593C50.4581 93.9749 51.0892 93.7827 51.8208 93.7827C52.5897 93.7827 53.2112 93.9687 53.6852 94.3407C54.1715 94.7004 54.4981 95.2646 54.6651 96.0334H54.386C54.6041 95.339 54.9969 94.7934 55.5644 94.3965C56.1442 93.9873 56.8185 93.7827 57.5874 93.7827C58.2695 93.7827 58.8285 93.9129 59.2645 94.1733C59.7128 94.4337 60.0506 94.8306 60.2778 95.3638C60.5049 95.8846 60.6215 96.5481 60.6275 97.3541L60.6646 102.339C60.6664 102.587 60.5996 102.78 60.4643 102.916C60.3413 103.052 60.1557 103.121 59.9077 103.121C59.6721 103.121 59.4856 103.052 59.3481 102.916C59.2231 102.78 59.1597 102.587 59.1578 102.339L59.1213 97.4285C59.1151 96.5977 58.968 95.99 58.6799 95.6056C58.3917 95.2088 57.9066 95.0104 57.2245 95.0104C56.4804 95.0104 55.8933 95.2708 55.4631 95.7916C55.0453 96.3001 54.8396 96.9945 54.8462 97.875L54.8794 102.339C54.8813 102.587 54.8145 102.78 54.6791 102.916C54.5561 103.052 54.3706 103.121 54.1226 103.121C53.8869 103.121 53.7004 103.052 53.563 102.916C53.438 102.78 53.3745 102.587 53.3727 102.339L53.3361 97.4285C53.3299 96.5977 53.1766 95.99 52.8761 95.6056C52.5879 95.2088 52.109 95.0104 51.4393 95.0104C50.6953 95.0104 50.1082 95.2708 49.678 95.7916C49.2601 96.3001 49.0545 96.9945 49.061 97.875L49.0943 102.339C49.0982 102.86 48.8459 103.121 48.3374 103.121Z" fill="#333333"/>
<path d="M67.6623 103.131C66.7074 103.131 65.8807 102.945 65.182 102.573C64.4956 102.188 63.9563 101.649 63.5641 100.955C63.1843 100.26 62.9889 99.4294 62.9781 98.4622C62.9675 97.5197 63.1443 96.7013 63.5085 96.0069C63.8726 95.3001 64.3749 94.7483 65.0153 94.3514C65.6681 93.9546 66.4223 93.7562 67.278 93.7562C67.8857 93.7562 68.4325 93.8616 68.9185 94.0724C69.4044 94.2708 69.8169 94.5623 70.1561 94.9467C70.5076 95.3311 70.7733 95.7961 70.953 96.3417C71.1451 96.8873 71.245 97.5011 71.2527 98.1832C71.2549 98.3816 71.2008 98.5304 71.0903 98.6296C70.9797 98.7164 70.8189 98.7598 70.6081 98.7598H64.1347L64.1236 97.774H70.2436L69.9487 98.0158C69.9412 97.3461 69.8356 96.7819 69.6321 96.3231C69.4284 95.8519 69.1329 95.4923 68.7457 95.2443C68.3708 94.9963 67.8982 94.8723 67.3278 94.8723C66.6953 94.8723 66.1575 95.0211 65.7144 95.3187C65.2836 95.6039 64.9595 96.0069 64.7421 96.5277C64.5246 97.0361 64.4197 97.6314 64.4273 98.3134L64.4286 98.425C64.4414 99.5658 64.724 100.434 65.2763 101.029C65.841 101.624 66.6318 101.922 67.6487 101.922C68.0704 101.922 68.4852 101.866 68.8932 101.754C69.3136 101.643 69.7207 101.457 70.1146 101.196C70.287 101.085 70.4415 101.035 70.578 101.048C70.7268 101.048 70.8451 101.091 70.9329 101.178C71.0205 101.252 71.0775 101.351 71.1037 101.475C71.1421 101.587 71.1311 101.711 71.0706 101.847C71.0226 101.984 70.9185 102.102 70.7584 102.201C70.3525 102.499 69.8714 102.728 69.3152 102.889C68.7589 103.05 68.208 103.131 67.6623 103.131Z" fill="#333333"/>
<path d="M90.6727 37.8246C90.1494 37.3494 89.7919 36.8574 89.6004 36.3485C89.4264 35.8388 89.4145 35.3255 89.5648 34.8087C89.7234 34.2828 90.0401 33.7579 90.5147 33.2341L93.6998 29.719L92.7771 28.8813C92.621 28.7396 92.5349 28.5944 92.5189 28.4459C92.5112 28.2882 92.5698 28.1404 92.6948 28.0025C92.8197 27.8647 92.9567 27.7965 93.106 27.798C93.2552 27.7995 93.4079 27.8711 93.564 28.0128L94.4867 28.8506L95.9232 27.2654C96.0897 27.0816 96.2651 26.9896 96.4494 26.9894C96.642 26.98 96.8255 27.0545 96.9999 27.2129C97.1744 27.3713 97.2617 27.5427 97.2619 27.7271C97.2797 27.9107 97.2053 28.0944 97.0387 28.2782L95.6023 29.8634L97.3376 31.4389C97.4937 31.5806 97.5798 31.7258 97.5958 31.8743C97.6118 32.0228 97.5573 32.166 97.4324 32.3039C97.3075 32.4417 97.1663 32.5145 97.0087 32.5222C96.8595 32.5207 96.7068 32.4491 96.5507 32.3074L94.8154 30.7319L91.7302 34.1366C91.2556 34.6604 91.0035 35.1602 90.9741 35.6359C90.9529 36.1025 91.1903 36.5609 91.6861 37.011C91.8605 37.1694 92.0241 37.2844 92.1768 37.356C92.3386 37.4359 92.4608 37.5134 92.5435 37.5884C92.6344 37.6543 92.6783 37.7444 92.6751 37.8587C92.6719 37.9731 92.5995 38.1083 92.458 38.2646C92.3581 38.3748 92.2435 38.4551 92.1143 38.5053C91.9943 38.5639 91.8672 38.5657 91.7329 38.5107C91.5894 38.4475 91.4133 38.3462 91.2047 38.2071C90.997 38.0855 90.8196 37.958 90.6727 37.8246Z" fill="#333333"/>
<path d="M81.8973 31.3948C81.115 30.9393 80.5387 30.3742 80.1686 29.6994C79.7984 29.0247 79.6342 28.2904 79.6758 27.4967C79.7343 26.6985 79.9984 25.8909 80.4683 25.0738C80.8269 24.4503 81.2341 23.9412 81.69 23.5466C82.1458 23.1519 82.6388 22.8793 83.1688 22.7287C83.7051 22.5674 84.2561 22.5295 84.8221 22.6151C85.3987 22.7069 85.9817 22.9244 86.5712 23.2676C86.957 23.4923 87.3249 23.7854 87.6748 24.147C88.0247 24.5086 88.2877 24.9344 88.4637 25.4244C88.5276 25.562 88.5447 25.6939 88.5151 25.8202C88.4854 25.9464 88.4236 26.0539 88.3296 26.1427C88.2418 26.2207 88.1388 26.2755 88.0205 26.3071C87.9084 26.3279 87.7903 26.3094 87.6662 26.2515C87.5529 26.1998 87.462 26.0967 87.3935 25.942C87.2386 25.5648 87.0411 25.2489 86.8012 24.9944C86.5613 24.7399 86.3074 24.5347 86.0395 24.3787C85.6215 24.1353 85.217 23.993 84.8258 23.9518C84.4408 23.8999 84.0701 23.9351 83.7136 24.0576C83.357 24.18 83.0147 24.3897 82.6866 24.6866C82.3693 24.9897 82.0715 25.3831 81.7933 25.8669C81.2554 26.8021 81.0485 27.6718 81.1726 28.4759C81.3029 29.2693 81.7753 29.9031 82.5897 30.3773C82.8577 30.5333 83.1557 30.6495 83.4838 30.7257C83.8226 30.8082 84.1985 30.8262 84.6115 30.7796C84.7788 30.7623 84.913 30.7902 85.014 30.8633C85.115 30.9365 85.1813 31.0325 85.2131 31.1515C85.251 31.2596 85.2498 31.3737 85.2094 31.4937C85.1797 31.6199 85.1179 31.7274 85.0239 31.8162C84.9361 31.8942 84.817 31.9397 84.6665 31.9525C84.1629 32.0324 83.6703 32.0182 83.1889 31.9101C82.7136 31.7912 82.2831 31.6195 81.8973 31.3948Z" fill="#333333"/>
<path d="M70.9364 25.5468C70.353 25.3368 69.8679 25.0369 69.481 24.6471C69.11 24.2499 68.8617 23.8047 68.7362 23.3113C68.6107 22.818 68.6361 22.3263 68.8126 21.8362C69.0394 21.2062 69.3755 20.767 69.8208 20.5187C70.2777 20.2747 70.901 20.2091 71.6907 20.3221C72.4921 20.4393 73.5345 20.729 74.8179 21.1911L75.6055 21.4747L75.2715 22.4023L74.5015 22.125C73.5564 21.7847 72.7928 21.5625 72.2108 21.4584C71.6447 21.3468 71.213 21.3561 70.9156 21.4863C70.63 21.6207 70.4179 21.8804 70.2792 22.2655C70.107 22.7439 70.1296 23.1936 70.3471 23.6146C70.5762 24.0398 70.9766 24.3553 71.5484 24.5611C72.0151 24.7292 72.4634 24.7654 72.8932 24.6697C73.3347 24.5783 73.724 24.3757 74.061 24.0621C74.4097 23.7527 74.6743 23.3471 74.855 22.8454L75.5734 20.8502C75.8338 20.1268 75.8749 19.5551 75.6967 19.135C75.5226 18.7033 75.103 18.3677 74.438 18.1282C74.0296 17.9812 73.6023 17.8866 73.1561 17.8446C72.7099 17.8026 72.2173 17.8163 71.6782 17.8858C71.4855 17.9087 71.335 17.8874 71.2267 17.8221C71.1226 17.7451 71.0524 17.6473 71.016 17.5287C70.9796 17.4102 70.9766 17.2905 71.0069 17.1696C71.0414 17.037 71.1089 16.9229 71.2092 16.8273C71.3213 16.7358 71.4599 16.6803 71.6251 16.6607C72.2309 16.5888 72.8057 16.5849 73.3494 16.6489C73.8931 16.7128 74.3925 16.8267 74.8476 16.9906C75.5827 17.2552 76.1453 17.5962 76.5354 18.0135C76.9298 18.4191 77.1554 18.9089 77.2123 19.483C77.2734 20.0454 77.1675 20.7058 76.8944 21.4642L75.1866 26.2072C75.1026 26.4406 74.9791 26.6004 74.8162 26.6868C74.665 26.7773 74.4844 26.7848 74.2744 26.7092C74.0527 26.6293 73.9066 26.5042 73.8361 26.3339C73.7657 26.1635 73.7725 25.9617 73.8565 25.7283L74.348 24.3632L74.5055 24.4199C74.2525 24.8297 73.9352 25.1437 73.5534 25.3621C73.1832 25.5848 72.7741 25.7142 72.3261 25.7506C71.878 25.787 71.4148 25.7191 70.9364 25.5468Z" fill="#333333"/>
<path d="M31.7478 24.0164C32.5265 23.6054 33.2901 23.4197 34.0386 23.4593C34.7871 23.4988 35.4814 23.7423 36.1215 24.1898C36.7563 24.654 37.295 25.3091 37.7378 26.1552C38.0713 26.7924 38.2825 27.4101 38.3715 28.0082C38.4663 28.6172 38.4386 29.1928 38.2883 29.7348C38.1381 30.2769 37.8815 30.7629 37.5187 31.1928C37.1506 31.6395 36.6759 32.0163 36.0947 32.3231C35.316 32.7342 34.5524 32.9199 33.8039 32.8803C33.0554 32.8407 32.3637 32.5888 31.7289 32.1246C31.0888 31.6772 30.5475 31.0304 30.1047 30.1844C29.7712 29.5471 29.56 28.9294 29.471 28.3314C29.382 27.7333 29.4097 27.1578 29.5542 26.6047C29.7044 26.0627 29.9636 25.5683 30.3317 25.1216C30.6945 24.6916 31.1666 24.3232 31.7478 24.0164ZM32.3084 25.0877C31.8149 25.3482 31.445 25.6978 31.1986 26.1363C30.9522 26.5749 30.8511 27.077 30.8951 27.6427C30.9283 28.2142 31.1144 28.8241 31.4537 29.4723C31.9769 30.4722 32.6013 31.1172 33.327 31.4072C34.0416 31.7031 34.7773 31.6513 35.5341 31.2518C36.0385 30.9855 36.414 30.6331 36.6604 30.1945C36.9015 29.7728 37.0055 29.2761 36.9724 28.7046C36.9341 28.1499 36.7396 27.5375 36.3888 26.8672C35.8713 25.8783 35.2469 25.2334 34.5155 24.9323C33.7899 24.6423 33.0542 24.6941 32.3084 25.0877Z" fill="#333333"/>
<path d="M44.5719 26.8085C44.3337 26.8777 44.1361 26.8641 43.9789 26.7677C43.8218 26.6713 43.7086 26.504 43.6394 26.2659L41.4747 18.8171C41.4055 18.5789 41.4131 18.383 41.4976 18.2293C41.5786 18.0637 41.7323 17.948 41.9585 17.8823C42.1848 17.8165 42.3765 17.8318 42.5336 17.9282C42.6992 18.0092 42.8166 18.1688 42.8859 18.407L43.3323 19.9432L43.0735 19.7859C43.1229 19.0226 43.3772 18.3869 43.8366 17.8789C44.3043 17.3555 44.9074 16.9865 45.6457 16.772C46.3364 16.5713 46.9444 16.5302 47.4696 16.6488C48.0067 16.7639 48.4628 17.0446 48.8378 17.4909C49.2094 17.9253 49.5077 18.5295 49.7327 19.3036L51.1239 24.0908C51.1931 24.329 51.1812 24.5326 51.0883 24.7017C51.0073 24.8673 50.8537 24.9829 50.6274 25.0487C50.3892 25.1179 50.1856 25.106 50.0165 25.0131C49.8594 24.9167 49.7462 24.7495 49.677 24.5113L48.3117 19.8134C48.0764 19.0036 47.7443 18.4608 47.3155 18.1851C46.8952 17.894 46.3396 17.8488 45.6489 18.0496C44.8511 18.2814 44.2866 18.7167 43.9557 19.3552C43.6331 19.9785 43.5912 20.7009 43.83 21.5226L45.0863 25.8454C45.2316 26.3455 45.0602 26.6666 44.5719 26.8085Z" fill="#333333"/>
<path d="M61.5818 24.2532C60.8749 24.2493 60.2803 24.122 59.798 23.8713C59.3281 23.6083 58.9766 23.2343 58.7435 22.7493C58.5105 22.252 58.3958 21.6499 58.3994 20.943L58.4241 16.1996L57.1778 16.1927C56.967 16.1915 56.806 16.141 56.6949 16.0412C56.5839 15.929 56.5289 15.7799 56.5298 15.5938C56.5308 15.4078 56.5874 15.2655 56.6995 15.1669C56.8116 15.0684 56.9731 15.0196 57.1839 15.0208L58.4302 15.0277L58.4413 12.8886C58.4426 12.6405 58.5118 12.4549 58.6488 12.3316C58.7859 12.196 58.9723 12.1288 59.2079 12.1301C59.4436 12.1314 59.623 12.2006 59.7463 12.3377C59.8821 12.4625 59.9493 12.6489 59.948 12.8969L59.9369 15.0361L62.2807 15.0491C62.4915 15.0503 62.6525 15.1008 62.7636 15.2006C62.8747 15.3004 62.9297 15.4433 62.9288 15.6294C62.9278 15.8154 62.8712 15.9639 62.759 16.0749C62.6469 16.1735 62.4854 16.2222 62.2746 16.221L59.9308 16.208L59.9069 20.8026C59.9033 21.5094 60.0493 22.0497 60.345 22.4234C60.6407 22.7847 61.1234 22.9672 61.7931 22.9709C62.0287 22.9722 62.2272 22.9485 62.3887 22.8998C62.5626 22.8511 62.7053 22.8271 62.8169 22.8277C62.9286 22.816 63.0214 22.8537 63.0954 22.9409C63.1693 23.0281 63.2058 23.1771 63.2047 23.3879C63.2039 23.5368 63.1722 23.673 63.1095 23.7967C63.0593 23.9204 62.9658 24.0067 62.8292 24.0555C62.6801 24.1043 62.4814 24.1466 62.2332 24.1824C61.9974 24.2307 61.7802 24.2543 61.5818 24.2532Z" fill="#333333"/>
<path d="M27.557 39.7415C26.8254 40.2746 26.0768 40.5746 25.3113 40.6414C24.5458 40.7082 23.809 40.5622 23.101 40.2035C22.3957 39.8275 21.7648 39.2592 21.2083 38.4985C20.7836 37.918 20.483 37.3392 20.3065 36.7619C20.1301 36.1847 20.08 35.6227 20.1564 35.076C20.2255 34.5193 20.4132 33.9989 20.7197 33.5147C21.0362 33.0232 21.4701 32.5766 22.0213 32.1749C22.3821 31.912 22.7983 31.6932 23.2697 31.5185C23.7411 31.3437 24.236 31.2746 24.7545 31.3112C24.9059 31.3082 25.0333 31.3458 25.1366 31.424C25.2399 31.5021 25.3131 31.6022 25.3563 31.7242C25.3921 31.8362 25.4006 31.9528 25.3817 32.074C25.3555 32.1851 25.2909 32.2859 25.188 32.3763C25.0951 32.4593 24.9642 32.5009 24.7954 32.5012C24.3883 32.4909 24.0202 32.5443 23.691 32.6615C23.3619 32.7786 23.072 32.9284 22.8214 33.111C22.4305 33.3959 22.1374 33.7092 21.9419 34.0511C21.7391 34.383 21.6217 34.7371 21.5897 35.1134C21.5576 35.4896 21.611 35.8881 21.7497 36.3087C21.8984 36.722 22.1375 37.1539 22.4671 37.6043C23.1041 38.475 23.8148 39.0159 24.5992 39.2269C25.3762 39.4279 26.1456 39.2509 26.9073 38.6958C27.1579 38.5133 27.3841 38.287 27.5861 38.017C27.7982 37.7398 27.9663 37.4025 28.0904 37.0051C28.1421 36.8447 28.2217 36.733 28.3293 36.67C28.4368 36.6069 28.5513 36.5849 28.6727 36.6038C28.7868 36.6127 28.8905 36.66 28.9837 36.7454C29.087 36.8236 29.1602 36.9237 29.2034 37.0457C29.2392 37.1577 29.2327 37.2852 29.1837 37.4283C29.0534 37.9222 28.8417 38.368 28.5487 38.7657C28.2484 39.1533 27.9178 39.4785 27.557 39.7415Z" fill="#333333"/>
<defs>
<clipPath id="clip0_5_116">
<rect width="29.0323" height="29.0323" fill="white" transform="translate(46.4516 48.5579)"/>
</clipPath>
</defs>
</svg>
