<svg width="584" height="432" viewBox="0 0 584 432" fill="none" xmlns="http://www.w3.org/2000/svg">
<g clip-path="url(#clip0_34_92)">
<path d="M142 115.873L290.396 63L442.788 114.933L418.113 311.268L290.396 382L164.677 312.208L142 115.873Z" fill="#E23237"/>
<path d="M442.789 114.933L290.396 63V382L418.114 311.386L442.789 114.933Z" fill="#B52E31"/>
<path d="M290.631 100.246L198.163 305.981L232.706 305.393L251.27 258.982H334.222L354.549 305.981L387.564 306.568L290.631 100.246ZM290.867 166.161L322.12 231.488H263.371L290.867 166.161Z" fill="white"/>
<path d="M564.784 339.286C563.94 337.862 560.287 339.387 559.616 338.095C558.947 336.807 562.34 334.846 564.279 330.365C564.629 329.557 566.832 324.465 565.201 322.893C562.109 319.915 547.961 332.206 543.01 328.184C541.924 327.301 541.165 325.539 537.876 322.678C536.568 321.54 535.777 321.026 535.011 321.217C533.925 321.488 533.838 322.942 532.674 325.801C530.927 330.088 529.893 329.829 528.875 333.25C528.12 335.789 528.292 337.266 527.403 337.553C526.145 337.96 524.987 335.267 523.392 335.508C521.765 335.754 520.781 338.89 520.471 341.238C519.888 345.644 521.506 348.551 522.402 351.609C523.377 354.931 523.955 359.984 521.705 367.136L499.427 429.902C504.346 417.023 518.586 381.717 524.57 368.597C526.297 364.81 528.204 360.968 532.121 359.452C535.891 357.992 541.069 358.863 547.671 357.273C548.442 357.087 550.581 356.543 550.851 355.285C551.073 354.244 549.815 353.664 550.008 352.689C550.268 351.382 552.742 351.366 555.784 349.858C557.928 348.795 559.264 347.53 560.413 346.443C560.759 346.115 565.908 341.181 564.784 339.286Z" fill="#F2F2F2"/>
<path d="M477.139 372.329C476.197 372.332 475.891 374.565 475.063 374.522C474.238 374.479 474.254 372.247 472.615 370.003C472.319 369.598 470.455 367.047 469.214 367.394C466.86 368.053 468.81 378.543 465.407 379.812C464.661 380.091 463.577 379.955 461.224 380.744C460.288 381.057 459.807 381.297 459.68 381.728C459.5 382.34 460.188 382.801 461.255 384.198C462.856 386.293 462.43 386.725 463.816 388.211C464.844 389.315 465.618 389.656 465.503 390.176C465.34 390.911 463.683 390.702 463.342 391.554C462.993 392.424 464.248 393.811 465.311 394.641C467.305 396.199 469.199 396.244 470.958 396.686C472.87 397.166 475.517 398.34 478.378 401.508L502.756 430.552C497.854 424.422 484.635 407.246 479.922 400.524C478.561 398.583 477.226 396.538 477.612 394.179C477.983 391.907 479.905 389.617 481.029 385.918C481.161 385.486 481.511 384.279 480.971 383.784C480.524 383.374 479.876 383.824 479.454 383.448C478.887 382.944 479.593 381.724 479.731 379.797C479.828 378.437 479.593 377.417 479.39 376.539C479.329 376.275 478.393 372.324 477.139 372.329Z" fill="#F2F2F2"/>
<path d="M495.939 376.549L495.371 371.481L495.63 371.097C496.831 369.32 497.442 367.585 497.45 365.938C497.451 365.676 497.439 365.414 497.427 365.147C497.378 364.09 497.316 362.776 498.002 361.244C498.386 360.39 499.465 358.413 501.088 358.657C501.524 358.719 501.855 358.919 502.106 359.154C502.142 359.096 502.18 359.037 502.221 358.973C502.726 358.202 503.126 357.872 503.511 357.554C503.808 357.309 504.113 357.057 504.593 356.46C504.804 356.198 504.968 355.968 505.106 355.775C505.526 355.19 506.074 354.492 507.04 354.505C508.073 354.553 508.614 355.408 508.972 355.973C509.612 356.981 509.902 357.708 510.094 358.19C510.164 358.366 510.244 358.564 510.284 358.626C510.617 359.115 513.322 358.657 514.342 358.491C516.631 358.109 518.612 357.779 519.428 359.223C520.013 360.255 519.579 361.621 518.098 363.39C517.637 363.941 517.146 364.359 516.71 364.687C517.071 364.903 517.394 365.233 517.525 365.752C517.834 366.98 516.778 368.211 514.388 369.415C513.795 369.716 512.996 370.118 511.876 370.311C511.349 370.402 510.874 370.424 510.468 370.436C510.459 370.671 510.404 370.925 510.261 371.187C509.841 371.958 508.968 372.325 507.651 372.237C506.202 372.161 505.009 371.885 503.957 371.642C503.038 371.432 502.246 371.253 501.625 371.295C500.472 371.388 499.584 372.31 498.541 373.507L495.939 376.549Z" fill="#F2F2F2"/>
<path d="M498.572 346.373L493.814 348.208L493.376 348.054C491.353 347.344 489.52 347.192 487.925 347.603C487.671 347.668 487.421 347.746 487.166 347.826C486.156 348.141 484.9 348.534 483.245 348.26C482.321 348.105 480.135 347.562 479.96 345.931C479.908 345.493 480.018 345.122 480.182 344.82C480.116 344.799 480.049 344.777 479.978 344.755C479.104 344.461 478.683 344.158 478.277 343.866C477.965 343.642 477.644 343.41 476.945 343.097C476.638 342.96 476.374 342.86 476.152 342.775C475.48 342.517 474.666 342.164 474.433 341.226C474.218 340.215 474.907 339.475 475.363 338.985C476.176 338.11 476.805 337.645 477.223 337.337C477.376 337.225 477.547 337.097 477.596 337.043C477.985 336.597 476.856 334.096 476.437 333.152C475.487 331.035 474.665 329.202 475.854 328.046C476.705 327.219 478.136 327.293 480.223 328.276C480.873 328.582 481.402 328.951 481.83 329.289C481.946 328.885 482.184 328.489 482.653 328.231C483.763 327.621 485.221 328.33 486.992 330.336C487.434 330.834 488.025 331.505 488.496 332.539C488.717 333.026 488.859 333.48 488.974 333.87C489.203 333.818 489.463 333.807 489.753 333.879C490.605 334.09 491.182 334.842 491.43 336.137C491.724 337.558 491.76 338.782 491.792 339.862C491.822 340.804 491.85 341.615 492.048 342.206C492.43 343.297 493.548 343.922 494.97 344.627L498.572 346.373Z" fill="#F2F2F2"/>
<path d="M495.939 331.442L495.371 326.374L495.63 325.99C496.831 324.213 497.442 322.478 497.45 320.831C497.451 320.569 497.439 320.307 497.427 320.041C497.378 318.983 497.316 317.669 498.002 316.137C498.386 315.283 499.465 313.306 501.088 313.551C501.524 313.612 501.855 313.812 502.106 314.047C502.142 313.989 502.18 313.93 502.221 313.866C502.726 313.095 503.126 312.765 503.511 312.447C503.808 312.202 504.113 311.95 504.593 311.353C504.804 311.091 504.968 310.861 505.106 310.668C505.526 310.083 506.074 309.385 507.04 309.398C508.073 309.447 508.614 310.301 508.972 310.866C509.612 311.874 509.902 312.601 510.094 313.083C510.164 313.259 510.244 313.458 510.284 313.519C510.617 314.008 513.322 313.551 514.342 313.384C516.631 313.002 518.612 312.672 519.428 314.116C520.013 315.149 519.579 316.514 518.098 318.283C517.637 318.834 517.146 319.252 516.71 319.58C517.071 319.796 517.394 320.126 517.525 320.645C517.834 321.873 516.778 323.104 514.388 324.308C513.795 324.609 512.996 325.011 511.876 325.204C511.349 325.295 510.874 325.317 510.468 325.329C510.459 325.564 510.404 325.818 510.261 326.08C509.841 326.851 508.968 327.218 507.651 327.13C506.202 327.054 505.009 326.778 503.957 326.535C503.038 326.325 502.246 326.146 501.625 326.188C500.472 326.281 499.584 327.203 498.541 328.4L495.939 331.442Z" fill="#F2F2F2"/>
<path d="M501.124 429.82L500.062 429.154L498.824 429.296C498.804 429.181 498.737 428.917 498.635 428.503C498.081 426.237 496.391 419.341 494.982 408.48C493.998 400.899 493.441 393.104 493.326 385.31C493.211 377.503 493.581 371.593 493.877 366.843C494.101 363.261 494.372 359.849 494.639 356.526C495.349 347.647 496.018 339.261 495.52 329.976C495.41 327.903 495.179 323.589 492.658 318.998C491.196 316.335 489.182 313.971 486.671 311.974L488.232 310.012C491.004 312.219 493.232 314.838 494.856 317.794C497.65 322.884 497.902 327.585 498.023 329.844C498.53 339.293 497.853 347.76 497.136 356.724C496.872 360.035 496.6 363.432 496.378 367C496.084 371.706 495.718 377.565 495.832 385.271C495.945 392.972 496.495 400.671 497.466 408.157C498.858 418.881 500.523 425.674 501.07 427.906C501.362 429.098 501.423 429.347 501.124 429.82Z" fill="#F2F2F2"/>
<path d="M482.075 315.956C481.972 315.956 481.868 315.954 481.763 315.946C479.629 315.831 477.653 314.554 475.889 312.151C475.061 311.02 474.638 309.73 473.794 307.158C473.663 306.762 473.027 304.75 472.64 301.983C472.387 300.174 472.418 299.418 472.777 298.75C473.175 298.006 473.818 297.487 474.543 297.137C474.511 296.897 474.536 296.65 474.641 296.398C475.068 295.353 476.203 295.49 476.817 295.556C477.128 295.595 477.516 295.647 477.934 295.625C478.593 295.593 478.946 295.397 479.482 295.103C479.995 294.822 480.632 294.472 481.578 294.279C483.443 293.89 485.006 294.418 485.521 294.592C488.231 295.495 489.567 297.602 491.114 300.042C491.422 300.531 492.481 302.313 493.179 304.755C493.683 306.517 493.612 307.3 493.461 307.883C493.152 309.079 492.424 309.765 490.575 311.277C488.645 312.86 487.676 313.653 486.843 314.135C484.907 315.254 483.69 315.956 482.075 315.956Z" fill="#F2F2F2"/>
<path d="M243.47 229.239C247.635 230.339 251.579 229.08 252.278 226.429C252.977 223.777 250.167 220.738 246 219.639C244.341 219.177 242.596 219.119 240.91 219.47L223.2 215.036L221.297 223.391L238.957 226.875C240.251 228.012 241.798 228.823 243.47 229.239Z" fill="#FFB6B6"/>
<path d="M146.133 188.562C146.133 188.562 142.536 195.465 147.522 198.87C152.507 202.275 194.024 218.056 194.024 218.056L235.254 227.028L236.742 217.008L199.204 205.016L167.9 183.963L146.133 188.562Z" fill="#2F2E41"/>
<path d="M195.229 411.37L202.221 408.224L191.212 375.316L180.892 379.957L195.229 411.37Z" fill="#FFB6B6"/>
<path d="M225.854 414.444C226.413 415.612 226.037 416.956 225.015 417.445L211.29 424.012C211.29 424.012 207.342 419.229 200.717 419.528L204.053 427.475L196.973 430.863L191.856 417.966C191.856 417.966 186.765 412.192 189.065 406.895C191.364 401.598 188.406 403.598 188.406 403.598L186.255 395.129L197.556 391.268L203.439 403.362L214.393 412.919L223.809 413.037C224.647 413.048 225.451 413.601 225.854 414.444Z" fill="#2F2E41"/>
<path d="M56.8606 394.379L63.1093 398.823L85.938 372.688L76.7169 366.13L56.8606 394.379Z" fill="#FFB6B6"/>
<path d="M69.6892 422.358C68.9639 423.431 67.6147 423.786 66.6756 423.151L54.0713 414.628C54.0713 414.628 56.2021 408.804 52.5957 403.239L47.4247 410.134L40.9226 405.738L49.4639 394.803C49.4639 394.803 51.8728 387.492 57.6054 386.799C63.3382 386.105 60.1172 384.563 60.1172 384.563L66.337 378.427L75.3812 386.225L67.9204 397.415L65.2113 411.698L69.8691 419.882C70.2837 420.61 70.213 421.583 69.6892 422.358Z" fill="#2F2E41"/>
<path d="M167.488 143.821H134.654V188.913H167.488V143.821Z" fill="#2F2E41"/>
<path d="M160.115 169.595L142.287 164.295L138.914 173.449L138.432 229.342C138.432 229.342 163.969 223.56 169.751 233.196L171.678 215.85C171.678 215.85 177.942 207.177 172.642 196.095C167.342 185.013 162.345 180.017 162.345 180.017L158.187 177.786L160.115 169.595Z" fill="#FF8ABF"/>
<path d="M139.637 220.91L137.228 245.483L169.028 252.229C169.028 252.229 166.619 231.028 169.51 226.21L139.637 220.91Z" fill="#FFB6B6"/>
<path d="M170.956 251.747C170.956 251.747 150.719 236.81 133.373 242.592C133.373 242.592 112.895 255.361 123.495 277.525L107.354 315.83L71.2168 366.423L81.3352 378.468L129.036 328.84L144.455 307.639L183.483 390.514L195.529 384.732L180.592 321.131L171.678 277.043L170.956 251.747Z" fill="#2F2E41"/>
<path d="M123.736 280.175L99.6448 272.466L122.773 208.382L120.363 174.172L140.768 168.417L152.164 218.982L123.736 280.175Z" fill="#2F2E41"/>
<path d="M161.014 181.348L157.372 177.706L158.996 174.349C158.996 174.349 169.51 185.254 171.438 188.145C173.365 191.036 191.363 263.647 191.363 263.647L164.21 274.875L169.51 217.861L171.473 205.038C171.763 203.141 171.438 201.202 170.547 199.504L161.014 181.348Z" fill="#2F2E41"/>
<path d="M152.152 165.037C160.976 165.037 168.129 157.884 168.129 149.06C168.129 140.236 160.976 133.083 152.152 133.083C143.328 133.083 136.174 140.236 136.174 149.06C136.174 157.884 143.328 165.037 152.152 165.037Z" fill="#FFB6B6"/>
<path d="M162.089 142.529C156.607 138.873 146.796 153.515 143.796 144.515C143.328 143.111 142.228 149.32 141.825 151.492C141.314 154.251 142.607 156.454 141.825 156.948C140.941 157.505 138.775 155.015 138.318 155.389C137.871 155.754 139.308 158.648 141.825 162.014C145.166 166.481 147.26 167.568 150.008 170.587C152.567 173.397 157.302 178.597 156.633 183.057C155.375 191.445 134.892 197.928 128.575 191.63C127.063 190.122 126.767 186.707 126.237 179.939C125.449 169.867 126.044 162.309 126.237 160.065C127.042 150.722 127.444 146.05 129.355 142.139C130.575 139.642 134.685 131.233 143.773 128.5C153.536 125.565 165.156 130.35 168.324 137.463C169.239 139.518 168.349 139.299 169.493 146.036C170.846 154.01 171.722 158.794 175.338 161.624C178.66 164.224 181.224 162.77 182.353 164.741C185.28 169.854 171.696 186.03 165.986 183.836C162.545 182.514 162.241 174.63 162.478 170.976C162.99 163.109 166.889 161.439 166.765 154.22C166.732 152.31 166.616 145.549 162.089 142.529Z" fill="#2F2E41"/>
<path d="M92.4816 276.042C91.8032 280.297 93.4486 284.096 96.1563 284.527C98.8641 284.958 101.608 281.859 102.286 277.603C102.58 275.906 102.464 274.164 101.947 272.522L104.593 254.458L96.0904 253.397L94.3841 271.317C93.3816 272.717 92.7292 274.338 92.4816 276.042Z" fill="#FFB6B6"/>
<path d="M123.254 175.136C123.254 175.136 116.027 172.245 113.136 177.545C110.245 182.845 98.6811 225.728 98.6811 225.728L93.8628 267.647L103.981 268.129L112.172 229.583L130 196.336L123.254 175.136Z" fill="#2F2E41"/>
<path d="M583.04 430.68C583.04 431.144 582.664 431.52 582.2 431.52H0V429.84H582.2C582.664 429.84 583.04 430.216 583.04 430.68Z" fill="#E6E6E6"/>
</g>
<defs>
<clipPath id="clip0_34_92">
<rect width="583.04" height="431.02" fill="white" transform="translate(0 0.5)"/>
</clipPath>
</defs>
</svg>
